/* XPM */
static char *rcp023931653935[] = {
/* columns rows colors chars-per-pixel */
"64 64 220 2 ",
"   c #060606",
".  c #0B0707",
"X  c #0C0A06",
"o  c #0D0608",
"O  c #0C0B0A",
"+  c #120A07",
"@  c #140B0B",
"#  c #1A0E0D",
"$  c #150705",
"%  c #0E130F",
"&  c #19110F",
"*  c #1A150A",
"=  c #0E0D12",
"-  c #160E11",
";  c #0E1210",
":  c #151313",
">  c #1C1514",
",  c #1C1A17",
"<  c #161518",
"1  c #1B1619",
"2  c #1D1A1B",
"3  c #161917",
"4  c #200B04",
"5  c #370C04",
"6  c #2A1507",
"7  c #2B1E0F",
"8  c #25190C",
"9  c #33140B",
"0  c #3C160C",
"q  c #3D1A0E",
"w  c #301B0C",
"e  c #221513",
"r  c #211C15",
"t  c #2C1A14",
"y  c #231C1C",
"u  c #2B1D1D",
"i  c #271718",
"p  c #321F19",
"a  c #371D12",
"s  c #2B200F",
"d  c #31220F",
"f  c #262217",
"g  c #25211E",
"h  c #2A211D",
"j  c #2D2615",
"k  c #3C2413",
"l  c #35231C",
"z  c #3A241B",
"x  c #33291D",
"c  c #3A2B1B",
"v  c #322213",
"b  c #3B331C",
"n  c #1D1C20",
"m  c #241F20",
"M  c #1E2122",
"N  c #242223",
"B  c #2B2424",
"V  c #252826",
"C  c #2D2A26",
"Z  c #262728",
"A  c #2B2729",
"S  c #2C2B2C",
"D  c #272829",
"F  c #322524",
"G  c #322A24",
"H  c #3B2B24",
"J  c #302728",
"K  c #332C2C",
"L  c #3A2D2B",
"P  c #2F312E",
"I  c #363223",
"U  c #3B3224",
"Y  c #34312D",
"T  c #3B332D",
"R  c #3E382B",
"E  c #2D2F31",
"W  c #342E31",
"Q  c #392F32",
"!  c #3A2F39",
"~  c #2F3234",
"^  c #313336",
"/  c #3B3334",
"(  c #3B3835",
")  c #353738",
"_  c #3C3339",
"`  c #37393A",
"'  c #3C3B3C",
"]  c #431E14",
"[  c #452A19",
"{  c #4A341D",
"}  c #50351C",
"|  c #432C22",
" . c #4F2D25",
".. c #532B23",
"X. c #502620",
"o. c #423421",
"O. c #4A3422",
"+. c #43342C",
"@. c #4C342B",
"#. c #433C2D",
"$. c #453928",
"%. c #5D3222",
"&. c #52352C",
"*. c #5D362B",
"=. c #5A3B2A",
"-. c #573A25",
";. c #433634",
":. c #423C34",
">. c #4D3C35",
",. c #40363A",
"<. c #433C3C",
"1. c #4C3D3D",
"2. c #533B34",
"3. c #593E37",
"4. c #47412E",
"5. c #52432B",
"6. c #464134",
"7. c #45413E",
"8. c #4B433D",
"9. c #484134",
"0. c #524033",
"q. c #52423A",
"w. c #514B3C",
"e. c #5D493D",
"r. c #574537",
"t. c #614D3C",
"y. c #6B4A39",
"u. c #644C32",
"i. c #3C3F40",
"p. c #443E42",
"a. c #483F42",
"s. c #454242",
"d. c #4A4343",
"f. c #4E4944",
"g. c #4D4A4A",
"h. c #534545",
"j. c #534946",
"k. c #5D4E4C",
"l. c #554B4A",
"z. c #5F5144",
"x. c #5F5148",
"c. c #5B5453",
"v. c #5A5A53",
"b. c #6A5143",
"n. c #695649",
"m. c #765745",
"M. c #695850",
"N. c #665959",
"B. c #7D5C53",
"V. c #7A604A",
"C. c #6B6551",
"Z. c #67625B",
"A. c #76695A",
"S. c #79715D",
"D. c #76715D",
"F. c #676666",
"G. c #746D6D",
"H. c #726562",
"J. c #777675",
"K. c #7E7663",
"L. c #83613F",
"P. c #88684B",
"I. c #8A6455",
"U. c #856958",
"Y. c #906555",
"T. c #8E735C",
"R. c #967558",
"E. c #867F6B",
"W. c #8A7569",
"Q. c #947768",
"!. c #847273",
"~. c #827C7B",
"^. c #8B7D7B",
"/. c #967E71",
"(. c #A37F63",
"). c #87836F",
"_. c #8C8374",
"`. c #8C847C",
"'. c #97837E",
"]. c #9A8779",
"[. c #9A917C",
"{. c #A4896C",
"}. c #A58979",
"|. c #B58D70",
" X c #AC937D",
".X c #AD987E",
"XX c #B39579",
"oX c #C2987E",
"OX c #888282",
"+X c #9A9282",
"@X c #9C9492",
"#X c #999D9A",
"$X c #A49D8A",
"%X c #A99684",
"&X c #B89C88",
"*X c #AF9D98",
"=X c #ACA58F",
"-X c #B8A58D",
";X c #AAA190",
":X c #BAB29C",
">X c #BCB0AF",
",X c #BCBBB9",
"<X c #B9A9A4",
"1X c #C39D8E",
"2X c #C9A894",
"3X c #D9B29E",
"4X c #D4AC95",
"5X c #CDABA1",
"6X c #CCB1A4",
"7X c #D5BCA2",
"8X c #D5BAAF",
"9X c #DBBBAC",
"0X c #D9B8A3",
"qX c #D8BEB5",
"wX c #C9BBB8",
"eX c #D5C1A2",
"rX c #C0C5BF",
"tX c #CAC2AC",
"yX c #E6C6B5",
"uX c #CED3CD",
/* pixels */
"^ ^ ^ ^ ^ ^ ^ ^ ^ ^ ^ ^ ^ ^ ^ ^ ^ ^ ^ ^ ^ ^ ^ ^ ^ ^ ^ ^ ^ ^ ^ ^ ^ ^ ^ ^ ^ ^ ^ ^ ^ ^ ^ ^ ^ ^ ^ ^ ^ ^ ) ^ ^ ^ ^ ^ ^ ^ ^ ^ ^ ^ ^ ^ ",
"^ ^ ^ ^ ^ ^ ^ ^ ^ ^ ^ ^ ^ ^ ^ ^ ^ ^ ^ ^ ^ ^ ^ ^ ^ ^ ^ ^ ^ ^ ^ ^ ^ ^ ^ ^ ^ ^ ^ ^ ^ ^ ^ ^ ^ ^ ^ ^ ^ ^ ) ) ^ ^ ^ ^ ^ ^ ^ ^ ^ ^ ^ ^ ",
"^ ^ ^ ^ ^ ^ ^ ^ ^ ^ ^ ^ ^ ^ ^ ^ ^ ^ ^ ^ ^ ^ ^ ^ ^ ^ ^ ^ ^ ^ ^ ^ ^ ^ ^ ^ ^ ^ ^ ^ ^ ^ ^ ^ ^ ^ ^ ^ ^ ) ) ) ^ ^ ^ ^ ^ ^ ^ ^ ^ ^ ^ ^ ",
"^ ^ ^ ^ ^ ^ ^ ^ ^ ^ ^ ^ ^ ^ ^ ^ ^ ^ ^ ^ ^ ^ ^ ^ ^ ^ ^ ^ ^ ^ ^ ^ ^ ^ ^ ^ ^ ^ ^ ^ ^ ^ ^ ^ ^ ^ ^ ^ ^ ^ ^ ^ ^ ^ ^ ^ ^ ^ ^ ^ ^ ^ ^ ^ ",
"^ ^ ^ ^ ^ ^ ^ ^ ^ ^ ^ ^ ^ ^ ^ ^ ^ ^ ^ ^ ^ ^ ^ ^ ^ ^ ^ ^ ^ ^ ^ ^ ^ ^ ^ ^ ^ ^ ^ ^ ^ ^ ^ ^ ^ ^ ^ ^ ^ ^ ^ ^ ^ ^ ^ ^ ^ ^ ^ ^ ^ ^ ^ ^ ",
"^ ^ ^ ^ ^ ^ ^ ^ ^ ^ ^ ^ ^ ^ ^ ^ ^ ^ ~ ~ ~ ~ ^ ^ ^ ^ ^ ^ ^ ^ ^ ^ ^ ^ ^ ^ ^ ^ ^ ~ ~ ~ ^ ^ ^ ^ ^ ^ ^ ^ ^ ^ ^ ^ ^ ^ ^ ^ ^ ^ ^ ^ ^ ^ ",
"~ ~ ~ ~ ~ ^ ^ ^ ^ ^ ^ ^ ^ ^ ^ ^ ^ ~ ~ ~ ~ ~ ~ ~ ~ ~ ^ ^ ^ ^ ^ ^ ^ ^ ^ ^ ^ ^ ~ ~ ~ ~ ~ ^ ^ ^ ^ ^ ^ ^ ^ ^ ^ ^ ^ ~ ~ ^ ^ ^ ^ ^ ^ ^ ",
"~ ~ ~ ~ ~ ^ ^ ^ ^ ^ ^ ^ ^ ^ ^ ^ ^ ~ ~ ~ ~ ~ ~ ^ ' A V ^ S Y S V A Y S V D E ~ ~ ~ ~ ~ ^ ^ ^ ^ ^ ^ ^ ^ ^ ^ ^ ~ ~ ~ ~ ^ ^ ^ ^ ^ ^ ",
"~ ~ ~ ~ ~ ^ ^ ^ ^ ^ ^ ^ ^ ^ ^ ^ ^ ~ ~ ~ ~ Z A ` K S Y / C Y / ( / Y ^ ` K ^ ` ` ^ ~ ~ ^ ^ ^ ^ ^ ^ ^ ^ ^ ~ ~ ~ ~ ~ ~ ~ ~ ^ ^ ^ ^ ",
"~ ^ ^ ^ ^ ^ ^ ^ ^ ^ ^ ^ ^ ^ ^ ^ ^ ^ ^ ^ W K K / / / Y Y Y / <.7.' 7.s.<.g.' / / ` W E ^ ^ ^ ^ ^ ^ ^ ^ ~ ~ ~ ~ ~ ~ ~ ~ ~ ^ ^ ^ ^ ",
"^ ^ ^ ^ ^ ^ ^ ^ ^ ^ ^ ^ ^ ^ ^ ^ ^ ^ ^ _ K Y Y S / / / ( 7.7.7.7.7.<.<.s.s.s.d.g.p.p.a.<.^ ^ ^ ^ ^ ~ ~ ~ ~ ~ ~ ~ ~ ~ ~ ~ ^ ^ ^ ^ ",
"^ ^ ^ ^ ^ ^ ^ ^ ^ ^ ^ ^ ^ ^ ^ ^ ^ S S K K C C B g g g B C Y / ( / ( <.s.s.s.s.s.d.d.a._ W ^ ^ ^ ~ ~ ~ ~ ~ ~ ~ ~ ~ ~ ~ ~ ^ ^ ^ ^ ",
"^ ^ ^ ^ ^ ^ ^ ^ ^ ^ ^ ^ ^ ^ ^ ^ B K A m K K K Y / / ( <.<.<.<.<.<.<./ / ( <.8.d.7.:.<.<.L K K ^ ~ ~ ~ ~ ~ ~ ~ ~ ~ ~ ~ ~ ~ ~ ~ ~ ",
"^ ^ ^ ^ ^ ^ ^ ^ ^ ^ ^ ^ ^ ^ ^ S y A K K K K T / / <.<.<.a.s.a.a.<.s.s.1./ / :.8.8.8.8.8.8.1.;.Y ^ ~ ~ ~ ~ ~ ~ ~ ~ ~ ~ ~ ~ ~ ~ ~ ",
"^ ^ ^ ^ ^ ^ ^ ^ ^ ^ ^ ^ ^ E A B S K W _ / / / _ / _ _ _ <.a.d.d.<.8.s.8.:.R R R :.9.#.R 8.#.H G S ~ ~ ~ ~ ~ ~ ~ ~ ~ ~ ~ ~ ~ ~ ~ ",
"^ ^ ^ ^ ^ ^ ^ ^ ^ ^ ^ ^ ^ S N y S K K K _ _ _ _ _ ! _ _ ,.<.a.s.f.<.:.<.f.6.I j #.C.K.S.E._._._.D.v.s.~ ~ ~ ~ ~ ~ ~ ~ ~ ~ ~ ~ ~ ",
"~ ~ ^ ^ ^ ^ ^ ^ ^ ^ ^ ^ ^ N y K K W _ / / / _ _ _ _ _ _ _ _ _ _ s.<.<.8.w.#.I I C.=X:X[.$X$X$X;X$X_.v.~ ~ ~ ~ ~ ~ ~ ~ ~ ~ ~ ~ ~ ",
"~ ~ ~ ~ ^ ^ ^ ^ ^ ^ ^ ^ ^ N 2 B W W / / _ _ _ _ _ _ ! ! ! ! _ _ Y ( 6.6.R #.w.C.E.[.S.o.4.#.$.R U w.f.~ ~ ~ ~ ~ ~ ~ ~ ~ ~ ~ ~ ~ ",
"~ ~ ~ ~ ~ ^ ^ ^ ^ ^ ^ ^ N V N y K _ ( _ _ _ _ _ _ ! ! ! _ _ _ / / ( I j b ).$XD.#.I I x * f h r X V ^ ~ ~ ~ ~ ~ ~ ~ ~ ~ ~ ~ ~ ~ ",
"~ ~ ~ ~ ~ ~ ~ ^ ^ ^ ^ E : m S S A K / _ W Q _ ;._ _ _ _ _ _ / / T :.6.4.8 D.S.j s j j r C K Y ( ( ^ ~ ~ ~ ~ ~ ~ ~ ~ ~ ~ ~ ~ ~ ~ ",
"E E E ~ ~ ~ ~ ~ ^ ^ ^ E < 1 m S N W <.j.<.,._ _ ;._ _ _ ` ` / / 6.f s r.tX[.z.c v c U T / / Y K 1 Z ~ ~ ~ ~ ~ ^ ^ ^ ^ ~ ~ ~ ~ ~ ",
"E E E E ~ ~ ~ ~ ^ ^ ^ ^ ^ S B B m N K K N K / / _ _ _ _ _ / T T U b b 5.-Xb.6 4 k 6 # 8 $ u g @ y S ~ ~ ~ ~ ~ ^ ^ ^ ^ ^ ~ ~ ~ ~ ",
"~ ~ ~ ~ ~ ~ ~ ~ ^ ^ E N @ 1 N N A B S / s.<./ / / / / / _ / T +.o.O.U.eX{.u.} m.P.U.b.| +.+.8.c.) ~ ~ ~ ^ ^ ^ ^ ^ ^ ^ ^ ~ ~ ~ ~ ",
"~ ~ ~ ~ ~ ~ ~ ~ ~ ^ Z : B S B m A N y 1 C K / T T / / / T T U H k .XeX{.P.P.R.(.&X0XyX8Xb.0.<.^ ~ ~ ~ ~ ^ ^ ^ ^ ^ ^ ^ ^ ~ ~ ~ ~ ",
"~ ~ ~ ~ ~ ~ ~ ~ ~ ^ S N S N y N A B B B B C C C C J J J F l z [ t.{.XXR.L.R.|.oX4X3X9X9X&Xx.C ~ ~ ~ ~ ~ ^ ^ ^ ^ ^ ^ ^ ^ ~ ~ ~ ~ ",
"~ ~ ~ ~ ~ ~ ~ ~ ~ ~ S y B y m S N y m B N g g g B u u B l t a &.7XXXR.P.-.%.%.%.%.Y.1X9X/.j.~ ~ ~ ~ ~ ~ ^ ^ ^ ^ ^ ^ ^ ^ ^ ^ ~ ~ ",
"~ ~ ~ ~ ~ ~ ~ ~ ~ ~ Z 1 S N y N B m N S B g g B C g u F l l O.m. XR.R.{.*.*.X.5 ..*.Q.qXW.f.^ ^ ^ ^ ^ ^ ^ ^ ^ ^ ^ ^ ^ ^ ^ ^ ^ ^ ",
"^ ^ ^ ^ ^ ~ ~ ~ ~ ~ S N V S B N N y m K y g g g C C B u t z b.}.T.T.XX2X*.I.I.......U.8XW.f.^ ^ ^ ^ ^ ^ ^ ^ ^ ^ ^ ^ ^ ^ ^ ^ ^ ^ ",
"^ ^ ^ ^ ^ ~ ~ ~ ~ ~ ~ E 2 1 N S A N N K N C C y u B F F t H n.].-.T.2X0X Xm.y.m.&.U.*XqXM.( ^ ^ ^ ^ ^ ^ ^ ^ ^ ^ ^ ^ ^ ^ ^ ^ ^ ^ ",
"^ ^ ^ ~ ~ ~ ~ ~ ~ ~ ~ ~ S V y 1 y N m 1 B C B y u u F L H @.M.Q.k } y.V.T.Q.%X6X'.'.!.n.;.J S ^ ^ ^ ^ ^ ^ ^ ^ ^ ^ ^ ^ ^ ^ ^ ^ ^ ",
"^ ~ ~ ~ ~ ~ ~ ~ ~ ~ ~ ~ ~ ~ E S K A N m N m B C J m u F F +.n.W.[ { O.O.b.e.r.z.k.h.h.h.K y N ^ ^ ^ ^ ^ ^ ^ ^ ^ ^ ^ ^ ^ ^ ^ ^ ~ ",
"~ ~ ~ ~ ~ ~ ~ ~ ~ ~ ~ ~ ~ ~ ^ ~ 1 - y / N m B C K B u u i p >.A.A.o.c t.@.+.q.M.1.<.Q B ' / E ^ ^ ^ ^ ^ ^ ^ ^ ^ ^ ^ ^ ^ ^ ~ ~ ~ ",
"~ ~ ~ ~ ~ ~ ~ ~ ~ ~ ~ ~ ~ ~ ~ ^ ^ ^ Z : y g y y g g J K B u H x.A.A.M.0.0.q.>.+.1.1.<./ y A ^ ^ ^ ^ ^ ^ ^ ^ ^ ^ ^ ^ ^ ^ ^ ~ ~ ~ ",
"~ ~ ~ ~ ~ ~ ~ ~ ~ ~ ~ ~ ~ ~ ~ ^ ^ ^ ^ ^ ^ V , , S 2 , B y y g F >.M.e.a | @.&.@.&.| L / ^ ^ ^ ^ ^ ^ ^ ^ ^ ^ ^ ^ ^ ^ ^ ^ ^ ~ ~ ~ ",
"~ ~ ~ ~ ~ ~ ~ ~ ~ ~ ~ ~ ~ ^ ^ ^ ^ ^ ^ ^ ^ ^ ^ ~ 3 O   X & o o @ e H 2.r.a 9 q  .[ z F ^ ^ ^ ^ ^ ^ ^ ^ ^ ^ ^ ^ ^ ^ ^ ^ ^ ^ ^ ^ ~ ",
"~ ~ ~ ~ ~ ~ ~ ~ ~ ~ ~ ~ ~ ^ ^ ^ ^ ^ ^ ^ ^ ^ S M   O : , , r y h p l | 2.B.3.] 9 0 l K ^ ^ ^ ^ ^ ^ ^ ^ ^ ^ ^ ^ ^ ^ ^ ^ ^ ^ ^ ^ ^ ",
"^ ^ ^ ^ ^ ^ ^ ^ ^ ^ ^ ^ ^ ^ ^ ^ ^ ^ ^ ^ ~ ~ N . : 1 y y / j.j.;.t p | 3.5X}.y.] 0 q l ^ ^ ^ ^ ^ ^ ^ ^ ^ ^ ^ ^ ^ ^ ^ ^ ^ ^ ^ ^ ^ ",
"^ ^ ^ ^ ^ ^ ^ ^ ^ ^ ^ ^ ^ ^ ^ ^ ^ ^ ~ ~ ~ ~ N @ N @ C G.@X>XwX<XN.H w &.5X2XI.5 0 0 l ^ ^ ^ ^ ^ ^ ^ ^ ^ ^ ^ ^ ^ ^ ^ ^ ^ ^ ^ ^ ^ ",
"^ ^ ^ ^ ^ ^ ^ ^ ^ ^ ^ ^ ^ ^ ^ ^ ^ ~ ~ ~ ~ ~ N . y : 7.@Xc.c.H.^.'.2.6 k Q.6X X[ q 9 p ^ ^ ^ ^ ^ ^ ^ ^ ^ ^ ^ ^ ~ ^ ^ ^ ^ ^ ^ ^ ^ ",
"^ ^ ^ ^ ^ ^ ^ ^ ^ ^ ^ ^ ^ ^ ^ ^ ~ ~ ~ ~ ~ ~ M . B : 1 f.~.@X*X`.q.H 7 w t.-X&X=.[ k x ~ ^ ^ ^ ^ ^ ^ ^ ^ ^ ^ ^ ~ ^ ^ ^ ^ ^ ^ ^ ^ ",
"^ ^ ^ ^ ^ ^ ^ ^ ^ ^ ^ ^ ^ ^ ^ ^ ^ ^ ~ ~ ~ ~ M   S < 3 ( ^ ^ s.Z.Z.#.j c d }..X{ 5.O.U ~ ~ ^ ^ ^ ^ ^ ^ ^ ^ ^ ^ ~ ^ ^ ^ ^ ^ ^ ^ ^ ",
"^ ^ ^ ^ ^ ^ ^ ^ ^ ^ ^ ^ ^ ^ ^ ^ ^ ^ ^ ^ ^ ^ M   N : ; V 2 P s.g.Y Y I j 7 +X%Xc 5.o.G ~ ^ ^ ^ ^ ^ ^ ^ ^ ^ ^ ^ ^ ^ ^ ^ ^ ^ ^ ^ ^ ",
"^ ^ ^ ^ ^ ^ ^ ^ ^ ^ ^ ^ ^ ^ ^ ^ ^ ^ ^ ^ ^ ^ V % ; 3 N ' J.#X,XrXv.Y C I x $X+X* j S ~ ~ ^ ^ ^ ^ ^ ^ ^ ^ ^ ^ ^ ^ ^ ^ ^ ^ ^ ^ ^ ^ ",
"^ ^ ^ ^ ^ ^ ^ ^ ^ ^ ^ ^ ^ ^ ^ ^ ^ ^ ^ ^ ^ ^ N O S ^ ^ S ` F.J.J.uXF.C Y r `.+XR I Y ~ ^ ^ ^ ^ ^ ^ ^ ^ ^ ^ ^ ^ ^ ^ ^ ^ ^ ^ ^ ^ ^ ",
"^ ^ ^ ^ ^ ^ ^ ^ ^ ^ ^ ^ ^ ^ ^ ^ ^ ^ ^ ^ ^ ^ ^ S   < <   2 N ' F.F.OXOXc.& + > g y A ~ ^ ^ ^ ^ ^ ^ ^ ^ ^ ^ ^ ^ ~ ~ ~ ~ ~ ^ ^ ^ ^ ",
"^ ^ ^ ^ ^ ^ ^ ^ ^ ^ ^ ^ ^ ^ ^ ^ ^ ^ ^ ^ ^ ^ ^ S o 1 N 2 1 2 A p.F.d.G.,Xy / / @ S ^ ^ ^ ^ ^ ^ ^ ^ ^ ^ ^ ^ ~ ~ ~ ~ ~ ~ ~ ~ ~ ^ ^ ",
"^ ^ ^ ^ ^ ^ ^ ^ ^ ^ ^ ^ ^ ^ ^ ^ ^ ^ ^ ^ ^ ~ S m > B B y m 1 : y / Q c.OXi !.J.@ S ^ ^ ^ ^ ^ ^ ^ ^ ^ ^ ^ ~ ~ ~ ~ ~ ~ ~ ~ ~ ~ ~ ^ ",
"~ ~ ~ ~ ~ ^ ^ ^ ^ ^ ^ ^ ^ ^ ^ ^ ^ ^ ^ ^ ~ ~ N o B J C m N N y - o W <.K N.^.N.@ S ^ ^ ^ ^ ^ ^ ^ ^ ^ ~ ~ ~ ~ ~ ~ ~ ~ ~ ~ ~ ~ ~ ~ ",
"~ ~ ~ ~ ~ ^ ^ ^ ^ ^ ^ ^ ^ ^ ^ ^ ^ ^ ^ ^ ^ ^ N @ y B C J K C C J > @ $ # N.1.u e B W ^ ^ ^ ^ ^ ~ ~ ~ ~ ~ ~ ~ ~ ~ ~ ~ ~ ~ ~ ~ ~ ~ ",
"~ ~ ~ ~ ~ ~ ^ ^ ^ ^ ^ ^ ^ ^ ^ ^ ^ ^ ^ ^ ^ ^ N o B y B / / J C K J B u F k.L u H # > B ^ ^ ^ ^ ~ ~ ~ ~ ~ ~ ~ ~ ~ ~ ~ ~ ~ ~ ~ ~ ~ ",
"~ ~ ~ ~ ~ ~ ~ ~ ^ ^ ^ ^ ^ ^ ^ ^ ^ ^ ^ ^ ^ ^ N . : / <.J r J L K K J K 8.^.1.l ;.F B C ^ ^ ^ ^ ^ ^ ~ ~ ~ ~ ~ ~ ~ ~ ~ ~ ~ ~ ~ ^ ^ ",
"~ ~ ~ ~ ~ ~ ~ ~ ^ ^ ^ ^ ^ ^ ^ ^ ^ ^ ^ ^ ^ ^ ~ Z . o @ o @ @ @ e # @ @ g OXk.u # i y C ^ ^ ^ ^ ^ ^ ^ ^ ^ ^ ^ ^ ^ ^ ^ ^ ^ ^ ^ ^ ^ ",
"~ ~ ~ ~ ~ ~ ~ ~ ^ ^ ^ ^ ^ ^ ^ ^ ^ ^ ^ ^ ^ ^ ^ ^ E N 1 r K y > & > & + . J h B K > T l.v.` ^ ^ ^ ^ ^ ^ ^ ^ ^ ^ ^ ^ ^ ^ ^ ^ ^ ^ ^ ",
"E ~ ~ ~ ~ ~ ~ ~ ^ ^ ^ ^ ^ ^ ^ ^ ^ ^ ^ ^ ^ ^ ^ E 1 C K B ,.<.:./ y S K B B r > # & r <.F.' ^ ^ ^ ^ ^ ^ ^ ^ ^ ^ ^ ^ ^ ^ ^ ^ ^ ^ ^ ",
"E ~ ~ ~ ~ ~ ~ ~ ^ ^ ^ ^ ^ ^ ^ ^ ^ ^ ^ ^ ^ ^ ^ ^ K B B K <.<./ B o N ^ ^ ^ 1 @ > K 1 N s.) ^ ^ ^ ^ ^ ^ ^ ^ ^ ^ ^ ^ ^ ^ ^ ^ ^ ^ ^ ",
"~ ~ ~ ~ ~ ~ ~ ~ ^ ^ ^ ^ ^ ^ ^ ^ ^ ^ ^ ^ ^ ^ ^ ^ C r r y B F.~.F.' ^ ^ ^ ^ 2 1 A 1 1 1 y A ~ ^ ^ ^ ^ ^ ^ ^ ^ ^ ^ ^ ^ ^ ^ ^ ^ ^ ^ ",
"~ ~ ~ ~ ~ ~ ^ ^ ^ ^ ^ ^ ^ ^ ^ ^ ^ ^ ^ ^ ^ ^ E V C C B y > N.J.g.) ^ ^ ^ ^ ^ S 2 : 1 y y : Z ^ ^ ^ ^ ^ ^ ^ ^ ^ ^ ^ ^ ^ ^ ^ ^ ^ ^ ",
"^ ^ ^ ^ ^ ^ ^ ^ ^ ^ ^ ^ ^ ^ ^ ^ ^ ^ ^ ^ ^ ^ D 1 K C y > @ / <.^ ^ ^ ^ ^ ^ ^ S n 2 2 < < g N V S ^ ^ ^ ^ ^ ^ ^ ^ ^ ^ ^ ^ ^ ^ ^ ^ ",
"^ ^ ^ ^ ^ ^ ^ ^ ^ ^ ^ ^ ^ ^ ^ ^ ^ ^ ^ ^ ^ S B y r r r 1 m B S ^ ^ ^ ^ ^ ^ ^ N O < n 2 < 2 A A 2 ~ ^ ^ ^ ^ ^ ^ ^ ^ ^ ^ ^ ~ ~ ~ ~ ",
"^ ^ ^ ^ ^ ^ ^ ^ ^ ^ ^ ^ ^ ^ ^ ^ ^ ^ ^ ^ ^ V , > > r y m ~ ^ ^ ^ ^ ^ ^ ^ ^ ^ S n = = : < 2 ^ ` A ^ ^ ^ ^ ^ ^ ^ ^ ^ ^ ^ ^ ~ ~ ~ ~ ",
"^ ^ ^ ^ ^ ^ ^ ^ ^ ^ ^ ^ ^ ^ ^ ^ ^ ^ ^ ^ ^ B B K J y y K S ~ ^ ^ ^ ^ ^ ^ ~ ~ ~ ~ N M N D ~ ~ ^ ^ ^ ^ ^ ^ ^ ^ ^ ^ ^ ^ ^ ^ ^ ~ ~ ~ ",
"^ ^ ^ ^ ^ ^ ^ ^ ^ ^ ^ ^ ^ ^ ^ ^ ^ ^ ^ ^ ^ ~ S / F.G.c.S N.s.~ ~ ~ ~ ~ ~ ~ ~ ~ ~ ~ ~ ~ ~ ~ ~ ~ ~ ^ ^ ^ ^ ^ ^ ^ ^ ^ ^ ^ ^ ^ ^ ^ ^ ",
"^ ^ ^ ^ ^ ^ ^ ^ ^ ^ ^ ^ ^ ^ ^ ^ ^ ^ ^ ^ ^ ^ ^ ^ ' i.` ~ ' ) ~ ~ ~ ~ ~ ~ ~ ~ ~ ~ ~ ~ ~ ~ ~ ~ ~ ~ ~ ~ ~ ~ ~ ~ ~ ~ ^ ^ ^ ^ ^ ^ ^ ^ ",
"^ ^ ^ ^ ^ ^ ^ ^ ^ ^ ^ ^ ^ ^ ^ ^ ^ ^ ^ ^ ^ ^ ^ ^ ^ ^ ^ ~ ~ ~ ~ ~ ~ ~ ~ ~ ~ ~ ~ ~ ~ ~ ~ ~ ~ ~ ~ ~ ~ ~ ~ ~ ~ ~ ~ ~ ^ ^ ^ ^ ^ ^ ^ ^ "
};
